<?xml version="1.0" standalone="no"?>
<!DOCTYPE svg PUBLIC "-//W3C//DTD SVG 20010904//EN"
 "http://www.w3.org/TR/2001/REC-SVG-20010904/DTD/svg10.dtd">
<svg version="1.0" xmlns="http://www.w3.org/2000/svg"
 width="634.000000pt" height="540.000000pt" viewBox="0 0 600.000000 500.000000"
 preserveAspectRatio="xMidYMid meet">

<g transform="translate(0.000000,540.000000) scale(0.100000,-0.100000)"
fill="#000000" stroke="none">
<path d="M3364 3991 c-168 -48 -311 -190 -369 -366 -6 -17 -9 -15 -27 19 -33
65 -111 134 -196 174 -76 36 -79 37 -219 40 l-143 4 0 -130 c0 -145 15 -213
64 -291 65 -102 180 -180 301 -202 37 -7 148 -9 295 -7 221 4 239 6 301 30
147 55 252 146 313 270 49 99 66 186 66 346 l0 132 -162 -1 c-123 0 -178 -5
-224 -18z m329 -160 c-4 -226 -70 -359 -227 -462 -87 -58 -167 -79 -292 -79
l-103 0 107 112 c59 62 148 155 199 207 92 96 92 96 72 116 -20 20 -20 20 -92
-57 -186 -199 -312 -328 -319 -328 -14 0 -9 182 7 240 38 143 143 272 268 331
86 40 131 47 267 46 l115 -2 -2 -124z m-970 -51 c156 -58 246 -191 247 -360
l0 -85 -115 115 c-114 113 -114 114 -135 95 l-21 -19 118 -119 118 -119 -90 4
c-75 3 -102 9 -156 35 -116 54 -199 163 -219 289 -12 70 -13 177 -2 189 14 14
196 -3 255 -25z"/>
<path d="M2340 2885 l0 -255 215 0 215 0 0 35 c0 19 4 35 10 35 5 0 80 -23
167 -52 242 -79 229 -80 548 70 150 71 270 133 283 148 34 38 30 97 -8 136
-27 27 -36 29 -78 26 -30 -3 -89 -25 -165 -61 l-118 -57 -11 25 c-19 41 -64
55 -181 55 -67 0 -108 4 -113 11 -19 31 -100 52 -216 57 l-118 5 0 38 0 39
-215 0 -215 0 0 -255z m380 0 l0 -205 -165 0 -165 0 0 198 c0 109 3 202 7 205
3 4 78 7 165 7 l158 0 0 -205z m343 78 c43 -31 48 -32 157 -35 101 -3 114 -5
126 -23 12 -18 11 -24 -2 -43 -14 -21 -23 -22 -140 -22 l-124 0 0 -25 0 -25
136 0 136 0 31 32 c29 28 290 158 319 158 18 0 48 -31 48 -50 0 -9 -8 -24 -17
-32 -10 -9 -130 -68 -266 -132 -203 -94 -257 -116 -294 -116 -28 0 -116 22
-224 57 l-179 57 0 119 0 119 124 -3 c121 -4 125 -5 169 -36z"/>
<path d="M1038 2271 c-66 -42 -98 -101 -98 -180 0 -91 36 -153 114 -193 58
-30 158 -22 215 15 48 32 91 110 91 165 l0 32 -105 0 -105 0 0 -40 0 -40 55 0
c30 0 55 -4 55 -9 0 -19 -53 -59 -86 -66 -26 -4 -47 0 -79 15 -102 49 -99 188
7 244 31 18 40 18 77 8 22 -7 51 -24 63 -37 l23 -24 32 20 c28 17 31 24 22 40
-5 11 -28 32 -51 47 -33 21 -55 27 -112 30 -65 3 -75 1 -118 -27z"/>
<path d="M1430 2090 l0 -210 39 0 c39 0 40 1 43 38 4 53 32 54 83 2 36 -37 43
-40 94 -40 l55 0 -47 48 -47 48 30 22 c83 62 83 202 -1 264 -34 26 -89 37
-176 38 l-73 0 0 -210z m205 105 c19 -18 25 -35 25 -70 0 -65 -31 -95 -100
-95 l-50 0 0 95 0 95 50 0 c41 0 56 -5 75 -25z"/>
<path d="M1810 2090 l0 -210 130 0 130 0 0 35 0 34 -87 3 -88 3 0 55 0 55 78
3 77 3 0 34 0 35 -80 0 -80 0 0 40 0 40 70 0 70 0 0 40 0 40 -110 0 -110 0 0
-210z"/>
<path d="M2140 2090 l0 -210 125 0 125 0 0 35 0 35 -85 0 -85 0 0 60 0 60 80
0 80 0 0 35 0 35 -80 0 -80 0 0 40 0 40 65 0 65 0 0 40 0 40 -105 0 -105 0 0
-210z"/>
<path d="M2460 2092 l0 -212 40 0 40 0 0 120 c0 66 3 120 6 120 4 0 32 -22 63
-48 31 -27 95 -81 144 -121 l87 -72 0 211 0 210 -40 0 -40 0 0 -120 c0 -66 -3
-120 -6 -120 -5 0 -214 171 -271 223 l-23 20 0 -211z"/>
<path d="M3170 2091 l0 -211 40 0 40 0 0 40 c0 33 3 40 20 40 10 0 36 -18 56
-40 35 -37 41 -40 92 -40 l55 0 -43 46 -43 46 31 24 c34 27 62 89 62 137 0 18
-10 53 -22 77 -33 63 -78 83 -195 88 l-93 4 0 -211z m201 103 c18 -19 24 -37
24 -71 0 -60 -36 -93 -101 -93 l-44 0 0 95 0 95 48 0 c39 0 53 -5 73 -26z"/>
<path d="M3550 2090 l0 -210 125 0 125 0 0 35 0 34 -82 3 -83 3 -3 58 -3 57
81 0 80 0 0 35 0 35 -80 0 -80 0 0 40 0 40 65 0 65 0 0 40 0 40 -105 0 -105 0
0 -210z"/>
<path d="M3975 2283 c-157 -82 -160 -304 -4 -383 45 -24 134 -27 182 -6 57 23
100 74 121 144 7 20 4 22 -33 22 -35 0 -43 -4 -56 -29 -34 -67 -107 -95 -169
-66 -87 42 -103 161 -29 229 50 47 118 43 173 -9 l25 -23 33 23 33 23 -31 32
c-17 17 -46 38 -65 46 -45 19 -142 17 -180 -3z"/>
<path d="M4445 2281 c-75 -35 -115 -102 -115 -194 0 -74 32 -133 94 -174 42
-29 56 -33 115 -33 81 0 131 26 175 88 25 35 31 55 34 111 4 74 -14 125 -60
168 -57 53 -168 69 -243 34z m162 -77 c86 -56 81 -189 -10 -235 -116 -60 -238
82 -164 192 43 65 115 83 174 43z"/>
<path d="M4820 2091 l0 -211 45 0 44 0 3 119 3 120 120 -100 c66 -55 132 -109
147 -120 l28 -20 -3 208 -2 208 -42 3 -42 3 -3 -122 -3 -122 -137 116 c-76 63
-142 118 -148 122 -7 4 -10 -62 -10 -204z"/>
</g>
</svg>
